<svg width="30" height="32" viewBox="0 0 30 32" fill="none" xmlns="http://www.w3.org/2000/svg">
<path fill-rule="evenodd" clip-rule="evenodd" d="M13.8862 1.201C10.3361 1.68613 7.51073 4.48799 6.9706 8.05911C6.86736 8.74202 6.87961 9.95415 6.99615 10.5797C7.35692 12.5163 8.37888 14.2847 9.83285 15.4881L10.0857 15.6974L9.59847 15.8844C9.33046 15.9873 8.81699 16.2147 8.45734 16.3898C3.80014 18.6568 0.669059 23.1188 0.0887337 28.3156C-0.042695 29.493 -0.0297455 30.0347 0.138422 30.3929C0.300262 30.7376 0.407959 30.843 0.762459 31.0039C1.23421 31.218 1.75359 31.1173 2.13194 30.7383C2.40699 30.4629 2.4705 30.2278 2.52629 29.2791C2.63 27.5159 2.98702 26.0763 3.6928 24.5761C4.41352 23.044 5.56046 21.5276 6.81955 20.4419L7.22332 20.0937L10.804 23.6704C14.5682 27.4304 14.5036 27.3734 15 27.3734C15.4964 27.3734 15.4318 27.4304 19.196 23.6704L22.7767 20.0937L23.1805 20.4419C24.4395 21.5276 25.5865 23.044 26.3072 24.5761C27.013 26.0763 27.37 27.5159 27.4737 29.2791C27.5295 30.2278 27.593 30.4629 27.8681 30.7383C28.2464 31.1173 28.7658 31.218 29.2375 31.0039C29.592 30.843 29.6997 30.7376 29.8616 30.3929C30.0297 30.0347 30.0427 29.493 29.9113 28.3156C29.4407 24.1015 27.3126 20.3717 23.9436 17.8562C22.8649 17.0508 21.5877 16.3398 20.4015 15.8844L19.9143 15.6974L20.1671 15.4881C21.6211 14.2847 22.6431 12.5163 23.0038 10.5797C23.1204 9.95415 23.1326 8.74202 23.0294 8.05911C22.7402 6.14726 21.7685 4.37017 20.3321 3.12663C18.5401 1.57516 16.2201 0.882053 13.8862 1.201ZM16.461 3.80731C17.4461 4.0912 18.2942 4.5962 18.991 5.3137C20.0054 6.35817 20.5238 7.53242 20.6043 8.96771C20.681 10.3343 20.2488 11.6557 19.3629 12.7635C17.4438 15.163 13.9054 15.5517 11.5011 13.6273C9.26108 11.8343 8.7206 8.59905 10.2652 6.22968C11.1322 4.89979 12.519 3.96969 14.0526 3.6896C14.554 3.59798 15.9758 3.6675 16.461 3.80731ZM15.8203 17.4122C16.2876 17.4458 16.9905 17.5359 17.3824 17.6125C18.1973 17.7719 19.504 18.1924 20.173 18.5107L20.6292 18.7278L17.8146 21.5412L15 24.3547L12.1854 21.5412L9.37083 18.7278L9.827 18.5102C10.4838 18.1969 11.9308 17.7365 12.7208 17.5895C13.2872 17.4841 13.7881 17.43 14.8535 17.3592C14.918 17.3549 15.353 17.3788 15.8203 17.4122ZM7.22678 26.7841C6.92543 26.858 6.66339 27.0408 6.47524 27.3084L6.29864 27.5596L6.28065 28.8272C6.26571 29.8837 6.27842 30.136 6.35735 30.3427C6.5244 30.7803 7.02779 31.125 7.49983 31.125C7.97188 31.125 8.47527 30.7803 8.64232 30.3427C8.72125 30.136 8.73396 29.8837 8.71902 28.8272L8.70103 27.5596L8.52267 27.3056C8.23292 26.8931 7.68371 26.6721 7.22678 26.7841ZM22.8 26.7993C22.6146 26.8405 22.4656 26.9341 22.264 27.1358C21.8888 27.5111 21.8374 27.769 21.8672 29.1247C21.892 30.2503 21.9335 30.4284 22.2429 30.7383C22.6213 31.1173 23.1407 31.218 23.6124 31.0039C23.9669 30.843 24.0746 30.7376 24.2365 30.3929C24.3666 30.1157 24.374 30.0363 24.3733 28.9274C24.3727 27.9155 24.3579 27.723 24.2651 27.5206C24.0007 26.944 23.4244 26.6603 22.8 26.7993Z" fill="url(#paint0_linear_333_5522)"/>
<defs>
<linearGradient id="paint0_linear_333_5522" x1="2.43419e-07" y1="16.125" x2="34.0752" y2="28.2562" gradientUnits="userSpaceOnUse">
<stop stop-color="#2B5EB7"/>
<stop offset="1" stop-color="#0077FF"/>
</linearGradient>
</defs>
</svg>
