<svg width="24" height="25" viewBox="0 0 24 25" fill="none" xmlns="http://www.w3.org/2000/svg">
<path d="M12 12.5C15.309 12.5 18 9.809 18 6.5C18 3.191 15.309 0.5 12 0.5C8.691 0.5 6 3.191 6 6.5C6 9.809 8.691 12.5 12 12.5ZM12 2.5C14.206 2.5 16 4.294 16 6.5C16 8.706 14.206 10.5 12 10.5C9.794 10.5 8 8.706 8 6.5C8 4.294 9.794 2.5 12 2.5ZM21 23.5C21 23.7652 20.8946 24.0196 20.7071 24.2071C20.5196 24.3946 20.2652 24.5 20 24.5C19.7348 24.5 19.4804 24.3946 19.2929 24.2071C19.1054 24.0196 19 23.7652 19 23.5C19 20.481 17.075 17.91 14.391 16.93L12.874 19.206L13.967 23.196C14.15 23.862 13.562 24.501 12.766 24.501H11.234C10.438 24.501 9.851 23.862 10.033 23.196L11.126 19.206L9.609 16.93C6.925 17.91 5 20.481 5 23.501C5 23.7662 4.89464 24.0206 4.70711 24.2081C4.51957 24.3956 4.26522 24.501 4 24.501C3.73478 24.501 3.48043 24.3956 3.29289 24.2081C3.10536 24.0206 3 23.7662 3 23.501C3 18.539 7.038 14.501 12 14.501C16.962 14.501 21 18.538 21 23.5Z" fill="url(#paint0_linear_333_5582)"/>
<defs>
<linearGradient id="paint0_linear_333_5582" x1="3" y1="12.5005" x2="24.5035" y2="18.2419" gradientUnits="userSpaceOnUse">
<stop stop-color="#2B5EB7"/>
<stop offset="1" stop-color="#0077FF"/>
</linearGradient>
</defs>
</svg>
