<svg width="24" height="25" viewBox="0 0 24 25" fill="none" xmlns="http://www.w3.org/2000/svg">
<path d="M17.0015 0.5H7.0005C4.24322 0.5 2 2.743 2 5.5V15.5C2 18.257 4.24322 20.5 7.0005 20.5H7.0335C6.78643 20.7491 6.56093 21.0188 6.35944 21.306C6.15028 21.5979 6.02682 21.9425 6.00296 22.3008C5.97911 22.6591 6.05581 23.0169 6.22442 23.334C6.59946 24.053 7.36254 24.5 8.21562 24.5H15.7844C16.6385 24.5 17.4015 24.053 17.7756 23.334C17.9442 23.0167 18.0208 22.6587 17.997 22.3003C17.9731 21.9418 17.8497 21.5971 17.6406 21.305C17.4391 21.0181 17.2136 20.7488 16.9665 20.5H16.9995C19.7568 20.5 22 18.257 22 15.5V5.5C22 2.743 19.7568 0.5 16.9995 0.5H17.0015ZM16.0034 22.408C15.9964 22.426 15.9354 22.5 15.7854 22.5H8.21662C8.08961 22.5 8.0256 22.447 8.0056 22.447H8.0026C8.84668 21.245 10.3778 20.499 12.002 20.499C13.6262 20.499 15.1613 21.247 16.0044 22.407L16.0034 22.408ZM20.0018 15.5C20.0018 17.154 18.6557 18.5 17.0015 18.5H7.0005C5.34633 18.5 4.0002 17.154 4.0002 15.5V5.5C4.0002 3.846 5.34633 2.5 7.0005 2.5H17.0015C18.6557 2.5 20.0018 3.846 20.0018 5.5V15.5ZM12.001 5.5C9.24372 5.5 7.0005 7.743 7.0005 10.5C7.0005 13.257 9.24372 15.5 12.001 15.5C14.7583 15.5 17.0015 13.257 17.0015 10.5C17.0015 7.743 14.7583 5.5 12.001 5.5ZM12.001 13.5C10.3468 13.5 9.0007 12.154 9.0007 10.5C9.0007 8.846 10.3468 7.5 12.001 7.5C13.6552 7.5 15.0013 8.846 15.0013 10.5C15.0013 12.154 13.6552 13.5 12.001 13.5Z" fill="url(#paint0_linear_333_5259)"/>
<defs>
<linearGradient id="paint0_linear_333_5259" x1="2" y1="12.5" x2="25.5254" y2="19.4794" gradientUnits="userSpaceOnUse">
<stop stop-color="#2B5EB7"/>
<stop offset="1" stop-color="#0077FF"/>
</linearGradient>
</defs>
</svg>
