<svg width="24" height="25" viewBox="0 0 24 25" fill="none" xmlns="http://www.w3.org/2000/svg">
<path fill-rule="evenodd" clip-rule="evenodd" d="M11.109 0.560799C8.26886 0.948902 6.00859 3.19039 5.57648 6.04729C5.49389 6.59362 5.50368 7.56332 5.59692 8.06378C5.88554 9.61301 6.7031 11.0277 7.86628 11.9905L8.06855 12.1579L7.67878 12.3076C7.46437 12.3899 7.05359 12.5718 6.76587 12.7118C3.04012 14.5254 0.535247 18.095 0.0709869 22.2525C-0.034156 23.1944 -0.0237964 23.6278 0.110738 23.9143C0.240209 24.1901 0.326368 24.2744 0.609968 24.4031C0.987366 24.5744 1.40288 24.4938 1.70555 24.1907C1.92559 23.9703 1.9764 23.7823 2.02103 23.0233C2.104 21.6127 2.38962 20.4611 2.95424 19.2609C3.53081 18.0352 4.44836 16.8221 5.45564 15.9535L5.77866 15.675L8.64321 18.5363C11.6545 21.5443 11.6029 21.4987 12 21.4987C12.3971 21.4987 12.3455 21.5443 15.3568 18.5363L18.2213 15.675L18.5444 15.9535C19.5516 16.8221 20.4692 18.0352 21.0458 19.2609C21.6104 20.4611 21.896 21.6127 21.979 23.0233C22.0236 23.7823 22.0744 23.9703 22.2944 24.1907C22.5971 24.4938 23.0126 24.5744 23.39 24.4031C23.6736 24.2744 23.7598 24.1901 23.8893 23.9143C24.0238 23.6278 24.0342 23.1944 23.929 22.2525C23.5526 18.8812 21.8501 15.8973 19.1549 13.885C18.2919 13.2406 17.2701 12.6718 16.3212 12.3076L15.9314 12.1579L16.1337 11.9905C17.2969 11.0277 18.1145 9.61301 18.4031 8.06378C18.4963 7.56332 18.5061 6.59362 18.4235 6.04729C18.1922 4.51781 17.4148 3.09614 16.2657 2.1013C14.8321 0.86013 12.9761 0.305642 11.109 0.560799ZM13.1688 2.64585C13.9569 2.87296 14.6354 3.27696 15.1928 3.85096C16.0043 4.68654 16.419 5.62594 16.4834 6.77417C16.5448 7.86748 16.199 8.92459 15.4903 9.81076C13.955 11.7304 11.1243 12.0414 9.20084 10.5018C7.40887 9.06748 6.97648 6.47924 8.21218 4.58374C8.90576 3.51983 10.0152 2.77575 11.2421 2.55168C11.6432 2.47839 12.7806 2.534 13.1688 2.64585ZM12.6563 13.5298C13.0301 13.5566 13.5924 13.6287 13.9059 13.69C14.5578 13.8175 15.6032 14.154 16.1384 14.4086L16.5033 14.5822L14.2516 16.833L12 19.0838L9.74836 16.833L7.49667 14.5822L7.8616 14.4081C8.38703 14.1575 9.54463 13.7892 10.1766 13.6716C10.6298 13.5873 11.0305 13.544 11.8828 13.4873C11.9344 13.4839 12.2824 13.503 12.6563 13.5298ZM5.78143 21.0273C5.54034 21.0864 5.33071 21.2326 5.18019 21.4468L5.03891 21.6477L5.02452 22.6618C5.01256 23.5069 5.02274 23.7088 5.08588 23.8741C5.21952 24.2243 5.62223 24.5 5.99987 24.5C6.3775 24.5 6.78021 24.2243 6.91386 23.8741C6.977 23.7088 6.98717 23.5069 6.97522 22.6618L6.96083 21.6477L6.81814 21.4445C6.58633 21.1145 6.14696 20.9377 5.78143 21.0273ZM18.24 21.0394C18.0917 21.0724 17.9725 21.1473 17.8112 21.3086C17.5111 21.6089 17.4699 21.8152 17.4938 22.8998C17.5136 23.8003 17.5468 23.9427 17.7943 24.1907C18.097 24.4938 18.5125 24.5744 18.8899 24.4031C19.1735 24.2744 19.2597 24.1901 19.3892 23.9143C19.4933 23.6926 19.4992 23.6291 19.4987 22.7419C19.4982 21.9324 19.4863 21.7784 19.4121 21.6165C19.2006 21.1552 18.7395 20.9282 18.24 21.0394Z" fill="url(#paint0_linear_333_5254)"/>
<defs>
<linearGradient id="paint0_linear_333_5254" x1="1.94735e-07" y1="12.5" x2="27.2602" y2="22.2049" gradientUnits="userSpaceOnUse">
<stop stop-color="#2B5EB7"/>
<stop offset="1" stop-color="#0077FF"/>
</linearGradient>
</defs>
</svg>
