<svg width="25" height="25" viewBox="0 0 25 25" fill="none" xmlns="http://www.w3.org/2000/svg">
<path d="M17.298 9.17032L18.702 10.5953L12.909 16.3023C12.5334 16.6748 12.0255 16.8834 11.4965 16.8825C10.9674 16.8816 10.4603 16.6712 10.086 16.2973L7.304 13.6013L8.697 12.1643L11.49 14.8713L17.298 9.17032ZM25 12.8823C25 19.4993 19.617 24.8823 13 24.8823C6.383 24.8823 1 19.4993 1 12.8823C1 6.26532 6.383 0.882324 13 0.882324C19.617 0.882324 25 6.26532 25 12.8823ZM23 12.8823C23 7.36832 18.514 2.88232 13 2.88232C7.486 2.88232 3 7.36832 3 12.8823C3 18.3963 7.486 22.8823 13 22.8823C18.514 22.8823 23 18.3963 23 12.8823Z" fill="url(#paint0_linear_333_5490)"/>
<defs>
<linearGradient id="paint0_linear_333_5490" x1="1" y1="12.8823" x2="28.2602" y2="22.5873" gradientUnits="userSpaceOnUse">
<stop stop-color="#2B5EB7"/>
<stop offset="1" stop-color="#0077FF"/>
</linearGradient>
</defs>
</svg>
