<svg width="25" height="25" viewBox="0 0 25 25" fill="none" xmlns="http://www.w3.org/2000/svg">
<path d="M20 4.88232H18.899C18.6668 3.75399 18.0528 2.74016 17.1605 2.01158C16.2681 1.283 15.152 0.884196 14 0.882324L6 0.882324C3.243 0.882324 1 3.12532 1 5.88232V18.7363C0.999477 19.0187 1.0547 19.2984 1.16251 19.5593C1.27032 19.8203 1.4286 20.0574 1.62826 20.2571C1.82791 20.4567 2.06503 20.615 2.32599 20.7228C2.58696 20.8306 2.86665 20.8859 3.149 20.8853C3.565 20.8853 3.98 20.7643 4.339 20.5253L7.289 18.5583C7.63617 19.5302 8.27505 20.3711 9.1183 20.9661C9.96154 21.5611 10.968 21.8811 12 21.8823H17.697L21.661 24.5253C21.9844 24.7413 22.3605 24.8653 22.7489 24.8838C23.1374 24.9023 23.5236 24.8146 23.866 24.6303C24.566 24.2563 25 23.5303 25 22.7363V9.88233C25 7.12533 22.757 4.88232 20 4.88232ZM3.23 18.8613C3.211 18.8733 3.155 18.9093 3.078 18.8683C2.999 18.8263 2.999 18.7593 2.999 18.7373V5.88232C2.999 4.22832 4.345 2.88232 5.999 2.88232H13.999C15.653 2.88232 16.999 4.22832 16.999 5.88232V12.8823C16.999 14.5363 15.653 15.8823 13.999 15.8823H7.999C7.672 15.8823 7.458 16.0413 7.434 16.0573L3.23 18.8613ZM23 22.7373C23 22.7583 23 22.8263 22.921 22.8683C22.8979 22.8821 22.8713 22.8888 22.8445 22.8875C22.8176 22.8863 22.7917 22.8772 22.77 22.8613L18.555 20.0503C18.3906 19.9409 18.1975 19.8825 18 19.8823H12C11.3798 19.8817 10.7751 19.6891 10.2687 19.331C9.76238 18.9729 9.37928 18.4668 9.172 17.8823H14C16.757 17.8823 19 15.6393 19 12.8823V6.88233H20C21.654 6.88233 23 8.22832 23 9.88233V22.7373Z" fill="black"/>
<path d="M20 4.88232H18.899C18.6668 3.75399 18.0528 2.74016 17.1605 2.01158C16.2681 1.283 15.152 0.884196 14 0.882324L6 0.882324C3.243 0.882324 1 3.12532 1 5.88232V18.7363C0.999477 19.0187 1.0547 19.2984 1.16251 19.5593C1.27032 19.8203 1.4286 20.0574 1.62826 20.2571C1.82791 20.4567 2.06503 20.615 2.32599 20.7228C2.58696 20.8306 2.86665 20.8859 3.149 20.8853C3.565 20.8853 3.98 20.7643 4.339 20.5253L7.289 18.5583C7.63617 19.5302 8.27505 20.3711 9.1183 20.9661C9.96154 21.5611 10.968 21.8811 12 21.8823H17.697L21.661 24.5253C21.9844 24.7413 22.3605 24.8653 22.7489 24.8838C23.1374 24.9023 23.5236 24.8146 23.866 24.6303C24.566 24.2563 25 23.5303 25 22.7363V9.88233C25 7.12533 22.757 4.88232 20 4.88232ZM3.23 18.8613C3.211 18.8733 3.155 18.9093 3.078 18.8683C2.999 18.8263 2.999 18.7593 2.999 18.7373V5.88232C2.999 4.22832 4.345 2.88232 5.999 2.88232H13.999C15.653 2.88232 16.999 4.22832 16.999 5.88232V12.8823C16.999 14.5363 15.653 15.8823 13.999 15.8823H7.999C7.672 15.8823 7.458 16.0413 7.434 16.0573L3.23 18.8613ZM23 22.7373C23 22.7583 23 22.8263 22.921 22.8683C22.8979 22.8821 22.8713 22.8888 22.8445 22.8875C22.8176 22.8863 22.7917 22.8772 22.77 22.8613L18.555 20.0503C18.3906 19.9409 18.1975 19.8825 18 19.8823H12C11.3798 19.8817 10.7751 19.6891 10.2687 19.331C9.76238 18.9729 9.37928 18.4668 9.172 17.8823H14C16.757 17.8823 19 15.6393 19 12.8823V6.88233H20C21.654 6.88233 23 8.22832 23 9.88233V22.7373Z" fill="url(#paint0_linear_333_5506)"/>
<defs>
<linearGradient id="paint0_linear_333_5506" x1="1" y1="12.8842" x2="28.2612" y2="22.588" gradientUnits="userSpaceOnUse">
<stop stop-color="#2B5EB7"/>
<stop offset="1" stop-color="#0077FF"/>
</linearGradient>
</defs>
</svg>
