<svg width="25" height="263" viewBox="0 0 25 263" fill="none" xmlns="http://www.w3.org/2000/svg">
<rect x="13" y="1" width="12" height="1.5" rx="0.75" fill="black"/>
<rect x="13" y="1" width="12" height="1.5" rx="0.75" fill="url(#paint0_linear_333_5413)"/>
<rect x="13" y="7.5" width="12" height="1.5" rx="0.75" fill="black"/>
<rect x="13" y="7.5" width="12" height="1.5" rx="0.75" fill="url(#paint1_linear_333_5413)"/>
<rect x="13" y="14" width="12" height="1.5" rx="0.75" fill="black"/>
<rect x="13" y="14" width="12" height="1.5" rx="0.75" fill="url(#paint2_linear_333_5413)"/>
<rect x="13" y="20.5" width="12" height="1.5" rx="0.75" fill="black"/>
<rect x="13" y="20.5" width="12" height="1.5" rx="0.75" fill="url(#paint3_linear_333_5413)"/>
<rect x="5" y="28" width="20" height="1.5" rx="0.75" fill="black"/>
<rect x="5" y="28" width="20" height="1.5" rx="0.75" fill="url(#paint4_linear_333_5413)"/>
<rect x="13" y="35.5" width="12" height="1.5" rx="0.75" fill="black"/>
<rect x="13" y="35.5" width="12" height="1.5" rx="0.75" fill="url(#paint5_linear_333_5413)"/>
<rect x="13" y="42" width="12" height="1.5" rx="0.75" fill="black"/>
<rect x="13" y="42" width="12" height="1.5" rx="0.75" fill="url(#paint6_linear_333_5413)"/>
<rect x="13" y="48.5" width="12" height="1.5" rx="0.75" fill="black"/>
<rect x="13" y="48.5" width="12" height="1.5" rx="0.75" fill="url(#paint7_linear_333_5413)"/>
<rect x="13" y="55" width="12" height="1.5" rx="0.75" fill="black"/>
<rect x="13" y="55" width="12" height="1.5" rx="0.75" fill="url(#paint8_linear_333_5413)"/>
<rect y="62.5" width="25" height="1.5" rx="0.75" fill="black"/>
<rect y="62.5" width="25" height="1.5" rx="0.75" fill="url(#paint9_linear_333_5413)"/>
<rect y="62" width="25" height="1.5" rx="0.75" fill="black"/>
<rect y="62" width="25" height="1.5" rx="0.75" fill="url(#paint10_linear_333_5413)"/>
<rect x="13" y="69.5" width="12" height="1.5" rx="0.75" fill="black"/>
<rect x="13" y="69.5" width="12" height="1.5" rx="0.75" fill="url(#paint11_linear_333_5413)"/>
<rect x="13" y="76" width="12" height="1.5" rx="0.75" fill="black"/>
<rect x="13" y="76" width="12" height="1.5" rx="0.75" fill="url(#paint12_linear_333_5413)"/>
<rect x="13" y="82.5" width="12" height="1.5" rx="0.75" fill="black"/>
<rect x="13" y="82.5" width="12" height="1.5" rx="0.75" fill="url(#paint13_linear_333_5413)"/>
<rect x="13" y="89" width="12" height="1.5" rx="0.75" fill="black"/>
<rect x="13" y="89" width="12" height="1.5" rx="0.75" fill="url(#paint14_linear_333_5413)"/>
<rect x="5" y="96.5" width="20" height="1.5" rx="0.75" fill="black"/>
<rect x="5" y="96.5" width="20" height="1.5" rx="0.75" fill="url(#paint15_linear_333_5413)"/>
<rect x="13" y="104" width="12" height="1.5" rx="0.75" fill="black"/>
<rect x="13" y="104" width="12" height="1.5" rx="0.75" fill="url(#paint16_linear_333_5413)"/>
<rect x="13" y="110.5" width="12" height="1.5" rx="0.75" fill="black"/>
<rect x="13" y="110.5" width="12" height="1.5" rx="0.75" fill="url(#paint17_linear_333_5413)"/>
<rect x="13" y="117" width="12" height="1.5" rx="0.75" fill="black"/>
<rect x="13" y="117" width="12" height="1.5" rx="0.75" fill="url(#paint18_linear_333_5413)"/>
<rect x="13" y="123.5" width="12" height="1.5" rx="0.75" fill="black"/>
<rect x="13" y="123.5" width="12" height="1.5" rx="0.75" fill="url(#paint19_linear_333_5413)"/>
<rect y="131" width="25" height="1.5" rx="0.75" fill="black"/>
<rect y="131" width="25" height="1.5" rx="0.75" fill="url(#paint20_linear_333_5413)"/>
<rect y="130.5" width="25" height="1.5" rx="0.75" fill="black"/>
<rect y="130.5" width="25" height="1.5" rx="0.75" fill="url(#paint21_linear_333_5413)"/>
<rect x="13" y="138" width="12" height="1.5" rx="0.75" fill="black"/>
<rect x="13" y="138" width="12" height="1.5" rx="0.75" fill="url(#paint22_linear_333_5413)"/>
<rect x="13" y="144.5" width="12" height="1.5" rx="0.75" fill="black"/>
<rect x="13" y="144.5" width="12" height="1.5" rx="0.75" fill="url(#paint23_linear_333_5413)"/>
<rect x="13" y="151" width="12" height="1.5" rx="0.75" fill="black"/>
<rect x="13" y="151" width="12" height="1.5" rx="0.75" fill="url(#paint24_linear_333_5413)"/>
<rect x="13" y="157.5" width="12" height="1.5" rx="0.75" fill="black"/>
<rect x="13" y="157.5" width="12" height="1.5" rx="0.75" fill="url(#paint25_linear_333_5413)"/>
<rect x="5" y="165" width="20" height="1.5" rx="0.75" fill="black"/>
<rect x="5" y="165" width="20" height="1.5" rx="0.75" fill="url(#paint26_linear_333_5413)"/>
<rect x="13" y="172.5" width="12" height="1.5" rx="0.75" fill="black"/>
<rect x="13" y="172.5" width="12" height="1.5" rx="0.75" fill="url(#paint27_linear_333_5413)"/>
<rect x="13" y="179" width="12" height="1.5" rx="0.75" fill="black"/>
<rect x="13" y="179" width="12" height="1.5" rx="0.75" fill="url(#paint28_linear_333_5413)"/>
<rect x="13" y="185.5" width="12" height="1.5" rx="0.75" fill="black"/>
<rect x="13" y="185.5" width="12" height="1.5" rx="0.75" fill="url(#paint29_linear_333_5413)"/>
<rect x="13" y="192" width="12" height="1.5" rx="0.75" fill="black"/>
<rect x="13" y="192" width="12" height="1.5" rx="0.75" fill="url(#paint30_linear_333_5413)"/>
<rect y="199.5" width="25" height="1.5" rx="0.75" fill="black"/>
<rect y="199.5" width="25" height="1.5" rx="0.75" fill="url(#paint31_linear_333_5413)"/>
<rect y="199" width="25" height="1.5" rx="0.75" fill="black"/>
<rect y="199" width="25" height="1.5" rx="0.75" fill="url(#paint32_linear_333_5413)"/>
<rect x="13" y="206.5" width="12" height="1.5" rx="0.75" fill="black"/>
<rect x="13" y="206.5" width="12" height="1.5" rx="0.75" fill="url(#paint33_linear_333_5413)"/>
<rect x="13" y="213" width="12" height="1.5" rx="0.75" fill="black"/>
<rect x="13" y="213" width="12" height="1.5" rx="0.75" fill="url(#paint34_linear_333_5413)"/>
<rect x="13" y="219.5" width="12" height="1.5" rx="0.75" fill="black"/>
<rect x="13" y="219.5" width="12" height="1.5" rx="0.75" fill="url(#paint35_linear_333_5413)"/>
<rect x="13" y="226" width="12" height="1.5" rx="0.75" fill="black"/>
<rect x="13" y="226" width="12" height="1.5" rx="0.75" fill="url(#paint36_linear_333_5413)"/>
<rect x="5" y="233.5" width="20" height="1.5" rx="0.75" fill="black"/>
<rect x="5" y="233.5" width="20" height="1.5" rx="0.75" fill="url(#paint37_linear_333_5413)"/>
<rect x="13" y="241" width="12" height="1.5" rx="0.75" fill="black"/>
<rect x="13" y="241" width="12" height="1.5" rx="0.75" fill="url(#paint38_linear_333_5413)"/>
<rect x="13" y="247.5" width="12" height="1.5" rx="0.75" fill="black"/>
<rect x="13" y="247.5" width="12" height="1.5" rx="0.75" fill="url(#paint39_linear_333_5413)"/>
<rect x="13" y="254" width="12" height="1.5" rx="0.75" fill="black"/>
<rect x="13" y="254" width="12" height="1.5" rx="0.75" fill="url(#paint40_linear_333_5413)"/>
<rect x="13" y="260.5" width="12" height="1.5" rx="0.75" fill="black"/>
<rect x="13" y="260.5" width="12" height="1.5" rx="0.75" fill="url(#paint41_linear_333_5413)"/>
<defs>
<linearGradient id="paint0_linear_333_5413" x1="19" y1="1" x2="19" y2="2.5" gradientUnits="userSpaceOnUse">
<stop stop-color="#0077FF"/>
<stop offset="1" stop-color="#2B5EB7"/>
</linearGradient>
<linearGradient id="paint1_linear_333_5413" x1="19" y1="7.5" x2="19" y2="9" gradientUnits="userSpaceOnUse">
<stop stop-color="#0077FF"/>
<stop offset="1" stop-color="#2B5EB7"/>
</linearGradient>
<linearGradient id="paint2_linear_333_5413" x1="19" y1="14" x2="19" y2="15.5" gradientUnits="userSpaceOnUse">
<stop stop-color="#0077FF"/>
<stop offset="1" stop-color="#2B5EB7"/>
</linearGradient>
<linearGradient id="paint3_linear_333_5413" x1="19" y1="20.5" x2="19" y2="22" gradientUnits="userSpaceOnUse">
<stop stop-color="#0077FF"/>
<stop offset="1" stop-color="#2B5EB7"/>
</linearGradient>
<linearGradient id="paint4_linear_333_5413" x1="15" y1="28" x2="15" y2="29.5" gradientUnits="userSpaceOnUse">
<stop stop-color="#0077FF"/>
<stop offset="1" stop-color="#2B5EB7"/>
</linearGradient>
<linearGradient id="paint5_linear_333_5413" x1="19" y1="35.5" x2="19" y2="37" gradientUnits="userSpaceOnUse">
<stop stop-color="#0077FF"/>
<stop offset="1" stop-color="#2B5EB7"/>
</linearGradient>
<linearGradient id="paint6_linear_333_5413" x1="19" y1="42" x2="19" y2="43.5" gradientUnits="userSpaceOnUse">
<stop stop-color="#0077FF"/>
<stop offset="1" stop-color="#2B5EB7"/>
</linearGradient>
<linearGradient id="paint7_linear_333_5413" x1="19" y1="48.5" x2="19" y2="50" gradientUnits="userSpaceOnUse">
<stop stop-color="#0077FF"/>
<stop offset="1" stop-color="#2B5EB7"/>
</linearGradient>
<linearGradient id="paint8_linear_333_5413" x1="19" y1="55" x2="19" y2="56.5" gradientUnits="userSpaceOnUse">
<stop stop-color="#0077FF"/>
<stop offset="1" stop-color="#2B5EB7"/>
</linearGradient>
<linearGradient id="paint9_linear_333_5413" x1="12.5" y1="62.5" x2="12.5" y2="64" gradientUnits="userSpaceOnUse">
<stop stop-color="#0077FF"/>
<stop offset="1" stop-color="#2B5EB7"/>
</linearGradient>
<linearGradient id="paint10_linear_333_5413" x1="12.5" y1="62" x2="12.5" y2="63.5" gradientUnits="userSpaceOnUse">
<stop stop-color="#0077FF"/>
<stop offset="1" stop-color="#2B5EB7"/>
</linearGradient>
<linearGradient id="paint11_linear_333_5413" x1="19" y1="69.5" x2="19" y2="71" gradientUnits="userSpaceOnUse">
<stop stop-color="#0077FF"/>
<stop offset="1" stop-color="#2B5EB7"/>
</linearGradient>
<linearGradient id="paint12_linear_333_5413" x1="19" y1="76" x2="19" y2="77.5" gradientUnits="userSpaceOnUse">
<stop stop-color="#0077FF"/>
<stop offset="1" stop-color="#2B5EB7"/>
</linearGradient>
<linearGradient id="paint13_linear_333_5413" x1="19" y1="82.5" x2="19" y2="84" gradientUnits="userSpaceOnUse">
<stop stop-color="#0077FF"/>
<stop offset="1" stop-color="#2B5EB7"/>
</linearGradient>
<linearGradient id="paint14_linear_333_5413" x1="19" y1="89" x2="19" y2="90.5" gradientUnits="userSpaceOnUse">
<stop stop-color="#0077FF"/>
<stop offset="1" stop-color="#2B5EB7"/>
</linearGradient>
<linearGradient id="paint15_linear_333_5413" x1="15" y1="96.5" x2="15" y2="98" gradientUnits="userSpaceOnUse">
<stop stop-color="#0077FF"/>
<stop offset="1" stop-color="#2B5EB7"/>
</linearGradient>
<linearGradient id="paint16_linear_333_5413" x1="19" y1="104" x2="19" y2="105.5" gradientUnits="userSpaceOnUse">
<stop stop-color="#0077FF"/>
<stop offset="1" stop-color="#2B5EB7"/>
</linearGradient>
<linearGradient id="paint17_linear_333_5413" x1="19" y1="110.5" x2="19" y2="112" gradientUnits="userSpaceOnUse">
<stop stop-color="#0077FF"/>
<stop offset="1" stop-color="#2B5EB7"/>
</linearGradient>
<linearGradient id="paint18_linear_333_5413" x1="19" y1="117" x2="19" y2="118.5" gradientUnits="userSpaceOnUse">
<stop stop-color="#0077FF"/>
<stop offset="1" stop-color="#2B5EB7"/>
</linearGradient>
<linearGradient id="paint19_linear_333_5413" x1="19" y1="123.5" x2="19" y2="125" gradientUnits="userSpaceOnUse">
<stop stop-color="#0077FF"/>
<stop offset="1" stop-color="#2B5EB7"/>
</linearGradient>
<linearGradient id="paint20_linear_333_5413" x1="12.5" y1="131" x2="12.5" y2="132.5" gradientUnits="userSpaceOnUse">
<stop stop-color="#0077FF"/>
<stop offset="1" stop-color="#2B5EB7"/>
</linearGradient>
<linearGradient id="paint21_linear_333_5413" x1="12.5" y1="130.5" x2="12.5" y2="132" gradientUnits="userSpaceOnUse">
<stop stop-color="#0077FF"/>
<stop offset="1" stop-color="#2B5EB7"/>
</linearGradient>
<linearGradient id="paint22_linear_333_5413" x1="19" y1="138" x2="19" y2="139.5" gradientUnits="userSpaceOnUse">
<stop stop-color="#0077FF"/>
<stop offset="1" stop-color="#2B5EB7"/>
</linearGradient>
<linearGradient id="paint23_linear_333_5413" x1="19" y1="144.5" x2="19" y2="146" gradientUnits="userSpaceOnUse">
<stop stop-color="#0077FF"/>
<stop offset="1" stop-color="#2B5EB7"/>
</linearGradient>
<linearGradient id="paint24_linear_333_5413" x1="19" y1="151" x2="19" y2="152.5" gradientUnits="userSpaceOnUse">
<stop stop-color="#0077FF"/>
<stop offset="1" stop-color="#2B5EB7"/>
</linearGradient>
<linearGradient id="paint25_linear_333_5413" x1="19" y1="157.5" x2="19" y2="159" gradientUnits="userSpaceOnUse">
<stop stop-color="#0077FF"/>
<stop offset="1" stop-color="#2B5EB7"/>
</linearGradient>
<linearGradient id="paint26_linear_333_5413" x1="15" y1="165" x2="15" y2="166.5" gradientUnits="userSpaceOnUse">
<stop stop-color="#0077FF"/>
<stop offset="1" stop-color="#2B5EB7"/>
</linearGradient>
<linearGradient id="paint27_linear_333_5413" x1="19" y1="172.5" x2="19" y2="174" gradientUnits="userSpaceOnUse">
<stop stop-color="#0077FF"/>
<stop offset="1" stop-color="#2B5EB7"/>
</linearGradient>
<linearGradient id="paint28_linear_333_5413" x1="19" y1="179" x2="19" y2="180.5" gradientUnits="userSpaceOnUse">
<stop stop-color="#0077FF"/>
<stop offset="1" stop-color="#2B5EB7"/>
</linearGradient>
<linearGradient id="paint29_linear_333_5413" x1="19" y1="185.5" x2="19" y2="187" gradientUnits="userSpaceOnUse">
<stop stop-color="#0077FF"/>
<stop offset="1" stop-color="#2B5EB7"/>
</linearGradient>
<linearGradient id="paint30_linear_333_5413" x1="19" y1="192" x2="19" y2="193.5" gradientUnits="userSpaceOnUse">
<stop stop-color="#0077FF"/>
<stop offset="1" stop-color="#2B5EB7"/>
</linearGradient>
<linearGradient id="paint31_linear_333_5413" x1="12.5" y1="199.5" x2="12.5" y2="201" gradientUnits="userSpaceOnUse">
<stop stop-color="#0077FF"/>
<stop offset="1" stop-color="#2B5EB7"/>
</linearGradient>
<linearGradient id="paint32_linear_333_5413" x1="12.5" y1="199" x2="12.5" y2="200.5" gradientUnits="userSpaceOnUse">
<stop stop-color="#0077FF"/>
<stop offset="1" stop-color="#2B5EB7"/>
</linearGradient>
<linearGradient id="paint33_linear_333_5413" x1="19" y1="206.5" x2="19" y2="208" gradientUnits="userSpaceOnUse">
<stop stop-color="#0077FF"/>
<stop offset="1" stop-color="#2B5EB7"/>
</linearGradient>
<linearGradient id="paint34_linear_333_5413" x1="19" y1="213" x2="19" y2="214.5" gradientUnits="userSpaceOnUse">
<stop stop-color="#0077FF"/>
<stop offset="1" stop-color="#2B5EB7"/>
</linearGradient>
<linearGradient id="paint35_linear_333_5413" x1="19" y1="219.5" x2="19" y2="221" gradientUnits="userSpaceOnUse">
<stop stop-color="#0077FF"/>
<stop offset="1" stop-color="#2B5EB7"/>
</linearGradient>
<linearGradient id="paint36_linear_333_5413" x1="19" y1="226" x2="19" y2="227.5" gradientUnits="userSpaceOnUse">
<stop stop-color="#0077FF"/>
<stop offset="1" stop-color="#2B5EB7"/>
</linearGradient>
<linearGradient id="paint37_linear_333_5413" x1="15" y1="233.5" x2="15" y2="235" gradientUnits="userSpaceOnUse">
<stop stop-color="#0077FF"/>
<stop offset="1" stop-color="#2B5EB7"/>
</linearGradient>
<linearGradient id="paint38_linear_333_5413" x1="19" y1="241" x2="19" y2="242.5" gradientUnits="userSpaceOnUse">
<stop stop-color="#0077FF"/>
<stop offset="1" stop-color="#2B5EB7"/>
</linearGradient>
<linearGradient id="paint39_linear_333_5413" x1="19" y1="247.5" x2="19" y2="249" gradientUnits="userSpaceOnUse">
<stop stop-color="#0077FF"/>
<stop offset="1" stop-color="#2B5EB7"/>
</linearGradient>
<linearGradient id="paint40_linear_333_5413" x1="19" y1="254" x2="19" y2="255.5" gradientUnits="userSpaceOnUse">
<stop stop-color="#0077FF"/>
<stop offset="1" stop-color="#2B5EB7"/>
</linearGradient>
<linearGradient id="paint41_linear_333_5413" x1="19" y1="260.5" x2="19" y2="262" gradientUnits="userSpaceOnUse">
<stop stop-color="#0077FF"/>
<stop offset="1" stop-color="#2B5EB7"/>
</linearGradient>
</defs>
</svg>
