<svg width="24" height="25" viewBox="0 0 24 25" fill="none" xmlns="http://www.w3.org/2000/svg">
<g clip-path="url(#clip0_333_6690)">
<path d="M12 6.30664C11.2089 6.30664 10.4355 6.54124 9.77772 6.98076C9.11993 7.42029 8.60723 8.045 8.30448 8.77591C8.00173 9.50681 7.92252 10.3111 8.07686 11.087C8.2312 11.8629 8.61216 12.5757 9.17157 13.1351C9.73098 13.6945 10.4437 14.0754 11.2196 14.2298C11.9956 14.3841 12.7998 14.3049 13.5307 14.0022C14.2616 13.6994 14.8864 13.1867 15.3259 12.5289C15.7654 11.8711 16 11.0978 16 10.3066C16 9.24577 15.5786 8.22836 14.8284 7.47821C14.0783 6.72807 13.0609 6.30664 12 6.30664ZM12 12.3066C11.6044 12.3066 11.2178 12.1893 10.8889 11.9696C10.56 11.7498 10.3036 11.4375 10.1522 11.072C10.0009 10.7066 9.96126 10.3044 10.0384 9.91646C10.1156 9.5285 10.3061 9.17213 10.5858 8.89243C10.8655 8.61272 11.2219 8.42224 11.6098 8.34507C11.9978 8.2679 12.3999 8.30751 12.7654 8.45888C13.1308 8.61026 13.4432 8.8666 13.6629 9.1955C13.8827 9.5244 14 9.91108 14 10.3066C14 10.8371 13.7893 11.3458 13.4142 11.7209C13.0391 12.0959 12.5304 12.3066 12 12.3066Z" fill="url(#paint0_linear_333_6690)"/>
<path d="M12.0003 24.3067C11.1583 24.311 10.3274 24.1135 9.57738 23.7307C8.82733 23.348 8.17991 22.7911 7.68931 22.1067C3.87831 16.8497 1.94531 12.8977 1.94531 10.3597C1.94531 7.69294 3.00468 5.13541 4.89035 3.24973C6.77603 1.36405 9.33356 0.304688 12.0003 0.304688C14.6671 0.304688 17.2246 1.36405 19.1103 3.24973C20.9959 5.13541 22.0553 7.69294 22.0553 10.3597C22.0553 12.8977 20.1223 16.8497 16.3113 22.1067C15.8207 22.7911 15.1733 23.348 14.4232 23.7307C13.6732 24.1135 12.8424 24.311 12.0003 24.3067ZM12.0003 2.48769C9.91273 2.49007 7.91133 3.32041 6.43518 4.79656C4.95904 6.27271 4.12869 8.27411 4.12631 10.3617C4.12631 12.3717 6.01931 16.0887 9.45531 20.8277C9.74701 21.2295 10.1297 21.5565 10.572 21.782C11.0144 22.0074 11.5038 22.125 12.0003 22.125C12.4968 22.125 12.9863 22.0074 13.4286 21.782C13.8709 21.5565 14.2536 21.2295 14.5453 20.8277C17.9813 16.0887 19.8743 12.3717 19.8743 10.3617C19.8719 8.27411 19.0416 6.27271 17.5654 4.79656C16.0893 3.32041 14.0879 2.49007 12.0003 2.48769Z" fill="url(#paint1_linear_333_6690)"/>
</g>
<defs>
<linearGradient id="paint0_linear_333_6690" x1="8" y1="10.3066" x2="17.0867" y2="13.5416" gradientUnits="userSpaceOnUse">
<stop stop-color="#2B5EB7"/>
<stop offset="1" stop-color="#0077FF"/>
</linearGradient>
<linearGradient id="paint1_linear_333_6690" x1="1.94531" y1="12.3057" x2="25.5794" y2="19.3553" gradientUnits="userSpaceOnUse">
<stop stop-color="#2B5EB7"/>
<stop offset="1" stop-color="#0077FF"/>
</linearGradient>
<clipPath id="clip0_333_6690">
<rect width="24" height="24" fill="white" transform="translate(0 0.306641)"/>
</clipPath>
</defs>
</svg>
