<svg width="303" height="502" viewBox="0 0 303 502" fill="none" xmlns="http://www.w3.org/2000/svg">
<path d="M47.1612 116.594C47.9863 116.594 48.6738 115.929 48.6738 115.13V-4.63114C48.6738 -5.42999 47.9863 -6.0957 47.1612 -6.0957C46.3362 -6.0957 45.6486 -5.42999 45.6486 -4.63114V115.063C45.6486 115.929 46.3362 116.594 47.1612 116.594Z" fill="white"/>
<path d="M4.60264 116.594C5.42769 116.594 6.11523 115.929 6.11523 115.13V-4.63114C6.11523 -5.42999 5.42769 -6.0957 4.60264 -6.0957C3.77759 -6.0957 3.09008 -5.42999 3.09008 -4.63114V115.063C3.09008 115.929 3.77759 116.594 4.60264 116.594Z" fill="white"/>
<path d="M1.63184 120.35V137.346L14.585 152.898H37.1758L50.1289 137.346V120.35H1.63184Z" stroke="white" stroke-width="3"/>
<path d="M24.1944 199.276C25.0194 199.276 25.6382 198.676 25.707 197.878C25.7757 197.079 25.157 196.346 24.2632 196.346C17.1127 195.88 11.5436 190.089 11.5436 183.165C11.5436 175.843 17.6627 169.918 25.2257 169.918H26.7383V153.275C26.7383 152.476 26.0507 151.811 25.2257 151.811C24.4006 151.811 23.7131 152.476 23.7131 153.275V166.989C15.1876 167.721 8.51845 174.644 8.51845 183.099C8.51845 191.553 15.3251 198.676 24.0569 199.209C24.1257 199.276 24.1256 199.276 24.1944 199.276Z" fill="white"/>
<path d="M35.0606 195.812C35.4043 195.812 35.7481 195.679 36.0231 195.479C39.7358 192.417 41.8672 187.89 41.8672 183.164C41.8672 182.365 41.1796 181.699 40.3546 181.699C39.5295 181.699 38.842 182.365 38.842 183.164C38.842 187.025 37.1232 190.686 34.0292 193.216C33.4105 193.749 33.3417 194.681 33.8917 195.28C34.1667 195.613 34.5793 195.812 35.0606 195.812Z" fill="white"/>
<path d="M23.3131 198.841C23.5593 199.081 23.8984 199.225 24.2347 199.274C29.031 199.672 33.7166 197.917 37.015 194.531C37.5725 193.959 37.5447 193.003 36.9537 192.427C36.3628 191.851 35.4058 191.848 34.8483 192.42C32.1538 195.186 28.3676 196.609 24.3862 196.261C23.5714 196.211 22.8717 196.831 22.8476 197.644C22.8122 198.074 22.9684 198.505 23.3131 198.841Z" fill="white"/>
<path d="M265.724 410.35L300.619 384.778L213.105 330.245L300.619 271.896C273.505 254.627 213.105 218.454 213.105 218.454C213.105 218.454 269.391 180.1 300.619 161.741L213.105 104.482L300.619 42.7715" stroke="white" stroke-width="3" stroke-linecap="round" stroke-linejoin="round"/>
<path d="M208.836 362.053C208.836 362.881 209.508 363.553 210.336 363.553C211.164 363.553 211.836 362.881 211.836 362.053L208.836 362.053ZM211.836 362.053L211.836 -31.82L208.836 -31.82L208.836 362.053L211.836 362.053Z" fill="white"/>
<path d="M299.119 500.5C299.119 501.328 299.791 502 300.619 502C301.448 502 302.119 501.328 302.119 500.5L299.119 500.5ZM302.119 500.5L302.119 -33.9649L299.119 -33.9649L299.119 500.5L302.119 500.5Z" fill="white"/>
<path d="M110.59 259.869V268.601" stroke="white" stroke-width="2" stroke-miterlimit="11.2252" stroke-linecap="round" stroke-linejoin="round"/>
<path d="M110.59 278.398V287.131" stroke="white" stroke-width="2" stroke-miterlimit="11.2252" stroke-linecap="round" stroke-linejoin="round"/>
<path d="M97.5898 273.5H105.918" stroke="white" stroke-width="2" stroke-miterlimit="11.2252" stroke-linecap="round" stroke-linejoin="round"/>
<path d="M115.262 273.5H123.59" stroke="white" stroke-width="2" stroke-miterlimit="11.2252" stroke-linecap="round" stroke-linejoin="round"/>
<path d="M123.59 50.5V59.2321" stroke="white" stroke-width="2" stroke-miterlimit="11.2252" stroke-linecap="round" stroke-linejoin="round"/>
<path d="M123.59 69.0293V77.7614" stroke="white" stroke-width="2" stroke-miterlimit="11.2252" stroke-linecap="round" stroke-linejoin="round"/>
<path d="M110.59 64.1309H118.918" stroke="white" stroke-width="2" stroke-miterlimit="11.2252" stroke-linecap="round" stroke-linejoin="round"/>
<path d="M128.262 64.1309H136.59" stroke="white" stroke-width="2" stroke-miterlimit="11.2252" stroke-linecap="round" stroke-linejoin="round"/>
</svg>
