<svg width="30" height="32" viewBox="0 0 30 32" fill="none" xmlns="http://www.w3.org/2000/svg">
<path d="M26.25 1.28369H3.75C1.6825 1.28369 0 2.96303 0 5.02664V23.7414H30V5.02664C30 2.96303 28.3175 1.28369 26.25 1.28369ZM27.5 21.2461H2.5V5.02664C2.5 4.33918 3.06125 3.77899 3.75 3.77899H26.25C26.9387 3.77899 27.5 4.33918 27.5 5.02664V21.2461ZM12.5 28.732C12.5075 29.0643 12.4485 29.3947 12.3263 29.7039C12.2041 30.0131 12.0213 30.2949 11.7885 30.5326C11.5557 30.7703 11.2777 30.9591 10.9708 31.0881C10.6639 31.2171 10.3343 31.2836 10.0013 31.2837C9.66825 31.2838 9.33859 31.2175 9.03161 31.0886C8.72464 30.9598 8.44654 30.771 8.21366 30.5334C7.98077 30.2959 7.79779 30.0142 7.67545 29.7051C7.55311 29.3959 7.49389 29.0655 7.50125 28.7332C7.51569 28.0813 7.78528 27.4608 8.2523 27.0048C8.71932 26.5487 9.34665 26.2933 10 26.2931C10.6534 26.2929 11.2808 26.5481 11.7481 27.0039C12.2153 27.4597 12.4852 28.08 12.5 28.732ZM14.8238 27.4843H30V29.9796H14.8238C14.9275 29.5791 15 29.1649 15 28.732C15 28.299 14.9275 27.8848 14.8238 27.4843ZM5.1775 27.4843C5.07375 27.8848 5.00125 28.299 5.00125 28.732C5.00125 29.1649 5.07375 29.5791 5.1775 29.9796H0V27.4843H5.17625H5.1775ZM10.0025 19.0303L21.4263 12.5125L10.0013 5.99606L10.0025 19.0303ZM12.5025 10.2967L16.3875 12.5125L12.5025 14.7296V10.2967Z" fill="url(#paint0_linear_333_5526)"/>
<defs>
<linearGradient id="paint0_linear_333_5526" x1="2.43419e-07" y1="16.2837" x2="34.0752" y2="28.4149" gradientUnits="userSpaceOnUse">
<stop stop-color="#2B5EB7"/>
<stop offset="1" stop-color="#0077FF"/>
</linearGradient>
</defs>
</svg>
