<svg width="24" height="25" viewBox="0 0 24 25" fill="none" xmlns="http://www.w3.org/2000/svg">
<path d="M21 0.627197H3C1.346 0.627197 0 1.97067 0 3.62156V18.5933H24V3.62156C24 1.97067 22.654 0.627197 21 0.627197ZM22 16.5971H2V3.62156C2 3.07159 2.449 2.62344 3 2.62344H21C21.551 2.62344 22 3.07159 22 3.62156V16.5971ZM10 22.5858C10.006 22.8517 9.95877 23.116 9.86103 23.3634C9.76328 23.6107 9.61701 23.8361 9.4308 24.0263C9.24458 24.2164 9.02218 24.3676 8.77666 24.4707C8.53113 24.5739 8.26742 24.6271 8.00101 24.6272C7.7346 24.6273 7.47087 24.5742 7.22529 24.4711C6.97971 24.3681 6.75723 24.2171 6.57093 24.027C6.38462 23.8369 6.23823 23.6116 6.14036 23.3643C6.04249 23.117 5.99511 22.8527 6.001 22.5868C6.01256 22.0652 6.22822 21.5689 6.60184 21.2041C6.97545 20.8392 7.47732 20.6348 8.00001 20.6347C8.5227 20.6346 9.02467 20.8387 9.39847 21.2034C9.77227 21.568 9.98818 22.0643 10 22.5858ZM11.859 21.5877H24V23.5839H11.859C11.942 23.2635 12 22.9322 12 22.5858C12 22.2395 11.942 21.9081 11.859 21.5877ZM4.142 21.5877C4.059 21.9081 4.001 22.2395 4.001 22.5858C4.001 22.9322 4.059 23.2635 4.142 23.5839H0V21.5877H4.141H4.142ZM8.002 14.8244L17.141 9.61027L8.001 4.39709L8.002 14.8244ZM10.002 7.83761L13.11 9.61027L10.002 11.3839V7.83761Z" fill="url(#paint0_linear_333_5265)"/>
<defs>
<linearGradient id="paint0_linear_333_5265" x1="1.94735e-07" y1="12.6272" x2="27.2602" y2="22.3321" gradientUnits="userSpaceOnUse">
<stop stop-color="#2B5EB7"/>
<stop offset="1" stop-color="#0077FF"/>
</linearGradient>
</defs>
</svg>
