<svg width="25" height="25" viewBox="0 0 25 25" fill="none" xmlns="http://www.w3.org/2000/svg">
<path d="M24.7078 23.1756L18.7388 17.2066C20.3654 15.2172 21.1651 12.6787 20.9726 10.1162C20.7801 7.55363 19.61 5.16313 17.7043 3.43912C15.7987 1.71511 13.3034 0.789487 10.7344 0.853719C8.16545 0.91795 5.71946 1.96712 3.90237 3.78421C2.08528 5.6013 1.03611 8.04729 0.971883 10.6162C0.907651 13.1852 1.83327 15.6806 3.55728 17.5862C5.28129 19.4918 7.67179 20.6619 10.2343 20.8544C12.7969 21.047 15.3354 20.2472 17.3248 18.6206L23.2938 24.5896C23.4824 24.7718 23.735 24.8726 23.9972 24.8703C24.2594 24.868 24.5102 24.7628 24.6956 24.5774C24.881 24.392 24.9862 24.1412 24.9884 23.879C24.9907 23.6168 24.8899 23.3642 24.7078 23.1756ZM11.0008 18.8826C9.41851 18.8826 7.87179 18.4134 6.5562 17.5344C5.2406 16.6553 4.21522 15.4059 3.60972 13.9441C3.00422 12.4823 2.84579 10.8737 3.15448 9.32187C3.46316 7.77002 4.22508 6.34456 5.3439 5.22574C6.46272 4.10692 7.88819 3.34499 9.44004 3.03631C10.9919 2.72763 12.6004 2.88606 14.0622 3.49156C15.524 4.09706 16.7735 5.12244 17.6525 6.43803C18.5316 7.75363 19.0008 9.30034 19.0008 10.8826C18.9984 13.0036 18.1548 15.037 16.655 16.5368C15.1552 18.0366 13.1218 18.8802 11.0008 18.8826Z" fill="url(#paint0_linear_333_5482)"/>
<defs>
<linearGradient id="paint0_linear_333_5482" x1="0.96875" y1="12.8604" x2="28.2513" y2="22.5734" gradientUnits="userSpaceOnUse">
<stop stop-color="#2B5EB7"/>
<stop offset="1" stop-color="#0077FF"/>
</linearGradient>
</defs>
</svg>
