<svg width="25" height="25" viewBox="0 0 25 25" fill="none" xmlns="http://www.w3.org/2000/svg">
<path d="M11 23.8823C11 24.1475 10.8946 24.4019 10.7071 24.5894C10.5196 24.777 10.2652 24.8823 10 24.8823H6C3.243 24.8823 1 22.6393 1 19.8823V5.88232C1 3.12532 3.243 0.882324 6 0.882324H14C16.757 0.882324 19 3.12532 19 5.88232V7.88232C19 8.14754 18.8946 8.40189 18.7071 8.58943C18.5196 8.77697 18.2652 8.88232 18 8.88232C17.7348 8.88232 17.4804 8.77697 17.2929 8.58943C17.1054 8.40189 17 8.14754 17 7.88232V5.88232C17 4.22832 15.654 2.88232 14 2.88232H6C4.346 2.88232 3 4.22832 3 5.88232V19.8823C3 21.5363 4.346 22.8823 6 22.8823H10C10.2652 22.8823 10.5196 22.9877 10.7071 23.1752C10.8946 23.3628 11 23.6171 11 23.8823ZM15 6.88232C15 6.61711 14.8946 6.36275 14.7071 6.17522C14.5196 5.98768 14.2652 5.88232 14 5.88232H6C5.73478 5.88232 5.48043 5.98768 5.29289 6.17522C5.10536 6.36275 5 6.61711 5 6.88232C5 7.14754 5.10536 7.40189 5.29289 7.58943C5.48043 7.77697 5.73478 7.88232 6 7.88232H14C14.2652 7.88232 14.5196 7.77697 14.7071 7.58943C14.8946 7.40189 15 7.14754 15 6.88232ZM11 11.8823C11 11.6171 10.8946 11.3628 10.7071 11.1752C10.5196 10.9877 10.2652 10.8823 10 10.8823H6C5.73478 10.8823 5.48043 10.9877 5.29289 11.1752C5.10536 11.3628 5 11.6171 5 11.8823C5 12.1475 5.10536 12.4019 5.29289 12.5894C5.48043 12.777 5.73478 12.8823 6 12.8823H10C10.2652 12.8823 10.5196 12.777 10.7071 12.5894C10.8946 12.4019 11 12.1475 11 11.8823ZM6 15.8823C5.73478 15.8823 5.48043 15.9877 5.29289 16.1752C5.10536 16.3628 5 16.6171 5 16.8823C5 17.1475 5.10536 17.4019 5.29289 17.5894C5.48043 17.777 5.73478 17.8823 6 17.8823H8C8.26522 17.8823 8.51957 17.777 8.70711 17.5894C8.89464 17.4019 9 17.1475 9 16.8823C9 16.6171 8.89464 16.3628 8.70711 16.1752C8.51957 15.9877 8.26522 15.8823 8 15.8823H6ZM25 17.8823C25 21.7413 21.859 24.8823 18 24.8823C14.141 24.8823 11 21.7413 11 17.8823C11 14.0233 14.141 10.8823 18 10.8823C21.859 10.8823 25 14.0233 25 17.8823ZM23 17.8823C23 15.1253 20.757 12.8823 18 12.8823C15.243 12.8823 13 15.1253 13 17.8823C13 20.6393 15.243 22.8823 18 22.8823C20.757 22.8823 23 20.6393 23 17.8823ZM19.808 16.6413L17.585 18.7753C17.5154 18.8436 17.4219 18.8821 17.3244 18.8825C17.2269 18.8828 17.1331 18.8451 17.063 18.7773L15.932 17.6693C15.8382 17.5774 15.7273 17.5048 15.6055 17.4558C15.4837 17.4067 15.3534 17.3822 15.2221 17.3835C15.0908 17.3848 14.961 17.4119 14.8402 17.4634C14.7194 17.5148 14.6099 17.5896 14.518 17.6833C14.4261 17.7771 14.3535 17.888 14.3045 18.0098C14.2554 18.1316 14.2309 18.2619 14.2322 18.3932C14.2335 18.5245 14.2606 18.6543 14.312 18.7751C14.3635 18.8959 14.4382 19.0054 14.532 19.0973L15.664 20.2063C16.124 20.6553 16.726 20.8803 17.327 20.8803C17.928 20.8803 18.528 20.6553 18.98 20.2093L21.193 18.0853C21.3844 17.9017 21.4949 17.6495 21.5003 17.3843C21.5058 17.1192 21.4057 16.8627 21.222 16.6713C21.0383 16.48 20.7862 16.3694 20.521 16.364C20.2558 16.3585 19.9994 16.4587 19.808 16.6423V16.6413Z" fill="url(#paint0_linear_333_5502)"/>
<defs>
<linearGradient id="paint0_linear_333_5502" x1="1" y1="12.8823" x2="28.2602" y2="22.5873" gradientUnits="userSpaceOnUse">
<stop stop-color="#2B5EB7"/>
<stop offset="1" stop-color="#0077FF"/>
</linearGradient>
</defs>
</svg>
