<svg width="24" height="25" viewBox="0 0 24 25" fill="none" xmlns="http://www.w3.org/2000/svg">
<path d="M18.656 1.81232L6.464 14.0043C5.99834 14.4675 5.62918 15.0184 5.37788 15.6252C5.12659 16.232 4.99815 16.8826 5 17.5393V18.8823C5 19.1475 5.10536 19.4019 5.29289 19.5894C5.48043 19.777 5.73478 19.8823 6 19.8823H7.343C7.99976 19.8842 8.65037 19.7557 9.25716 19.5044C9.86394 19.2531 10.4149 18.884 10.878 18.4183L23.07 6.22632C23.6544 5.64049 23.9826 4.8468 23.9826 4.01932C23.9826 3.19185 23.6544 2.39815 23.07 1.81232C22.4757 1.24422 21.6852 0.927174 20.863 0.927174C20.0408 0.927174 19.2503 1.24422 18.656 1.81232ZM21.656 4.81232L9.464 17.0043C8.90013 17.5648 8.13801 17.8802 7.343 17.8823H7V17.5393C7.00208 16.7443 7.31757 15.9822 7.878 15.4183L20.07 3.22632C20.2836 3.02228 20.5676 2.90842 20.863 2.90842C21.1584 2.90842 21.4424 3.02228 21.656 3.22632C21.8659 3.43684 21.9838 3.72202 21.9838 4.01932C21.9838 4.31663 21.8659 4.60181 21.656 4.81232Z" fill="url(#paint0_linear_333_5486)"/>
<path d="M23 9.86133C22.7348 9.86133 22.4804 9.96668 22.2929 10.1542C22.1054 10.3418 22 10.5961 22 10.8613V15.8823H18C17.2044 15.8823 16.4413 16.1984 15.8787 16.761C15.3161 17.3236 15 18.0867 15 18.8823V22.8823H5C4.20435 22.8823 3.44129 22.5663 2.87868 22.0036C2.31607 21.441 2 20.678 2 19.8823V5.88232C2 5.08668 2.31607 4.32361 2.87868 3.761C3.44129 3.1984 4.20435 2.88232 5 2.88232H14.042C14.3072 2.88232 14.5616 2.77697 14.7491 2.58943C14.9366 2.40189 15.042 2.14754 15.042 1.88232C15.042 1.61711 14.9366 1.36275 14.7491 1.17522C14.5616 0.987681 14.3072 0.882324 14.042 0.882324H5C3.67441 0.883912 2.40356 1.41121 1.46622 2.34854C0.528882 3.28588 0.00158786 4.55673 0 5.88232V19.8823C0.00158786 21.2079 0.528882 22.4788 1.46622 23.4161C2.40356 24.3534 3.67441 24.8807 5 24.8823H16.343C16.9999 24.8842 17.6507 24.7558 18.2576 24.5045C18.8646 24.2532 19.4157 23.884 19.879 23.4183L22.535 20.7603C23.0007 20.2972 23.37 19.7463 23.6215 19.1395C23.873 18.5328 24.0016 17.8821 24 17.2253V10.8613C24 10.5961 23.8946 10.3418 23.7071 10.1542C23.5196 9.96668 23.2652 9.86133 23 9.86133ZM18.465 22.0043C18.063 22.4053 17.5547 22.6829 17 22.8043V18.8823C17 18.6171 17.1054 18.3628 17.2929 18.1752C17.4804 17.9877 17.7348 17.8823 18 17.8823H21.925C21.8013 18.4358 21.524 18.9433 21.125 19.3463L18.465 22.0043Z" fill="url(#paint1_linear_333_5486)"/>
<defs>
<linearGradient id="paint0_linear_333_5486" x1="1.94735e-07" y1="12.8823" x2="27.2602" y2="22.5873" gradientUnits="userSpaceOnUse">
<stop stop-color="#2B5EB7"/>
<stop offset="1" stop-color="#0077FF"/>
</linearGradient>
<linearGradient id="paint1_linear_333_5486" x1="1.94735e-07" y1="12.8823" x2="27.2602" y2="22.5873" gradientUnits="userSpaceOnUse">
<stop stop-color="#2B5EB7"/>
<stop offset="1" stop-color="#0077FF"/>
</linearGradient>
</defs>
</svg>
