<svg width="25" height="25" viewBox="0 0 25 25" fill="none" xmlns="http://www.w3.org/2000/svg">
<path d="M17.5 0.882324C13.294 0.882324 10 2.85932 10 5.38232V7.96932C9.50213 7.91101 9.00127 7.88196 8.5 7.88232C4.294 7.88232 1 9.85932 1 12.3823V20.3823C1 22.9053 4.294 24.8823 8.5 24.8823C11.907 24.8823 14.716 23.5853 15.66 21.7513C16.258 21.8383 16.874 21.8823 17.5 21.8823C21.706 21.8823 25 19.9053 25 17.3823V5.38232C25 2.85932 21.706 0.882324 17.5 0.882324ZM23 13.3823C23 14.5623 20.648 15.8823 17.5 15.8823C16.988 15.8823 16.486 15.8473 16 15.7793V13.7953C16.49 13.8523 16.992 13.8823 17.5 13.8823C19.694 13.8823 21.64 13.3443 23 12.4713V13.3823ZM3 15.4713C4.36 16.3443 6.306 16.8823 8.5 16.8823C10.694 16.8823 12.64 16.3443 14 15.4713V16.3823C14 17.5623 11.648 18.8823 8.5 18.8823C5.352 18.8823 3 17.5623 3 16.3823V15.4713ZM23 9.38232C23 10.5623 20.648 11.8823 17.5 11.8823C16.965 11.8823 16.44 11.8443 15.934 11.7703C15.741 10.8833 15.134 10.0863 14.228 9.44732C15.212 9.72732 16.32 9.88232 17.5 9.88232C19.694 9.88232 21.64 9.34432 23 8.47132V9.38232ZM17.5 2.88232C20.648 2.88232 23 4.20232 23 5.38232C23 6.56232 20.648 7.88232 17.5 7.88232C14.352 7.88232 12 6.56232 12 5.38232C12 4.20232 14.352 2.88232 17.5 2.88232ZM8.5 9.88232C11.648 9.88232 14 11.2023 14 12.3823C14 13.5623 11.648 14.8823 8.5 14.8823C5.352 14.8823 3 13.5623 3 12.3823C3 11.2023 5.352 9.88232 8.5 9.88232ZM8.5 22.8823C5.352 22.8823 3 21.5623 3 20.3823V19.4713C4.36 20.3443 6.306 20.8823 8.5 20.8823C10.694 20.8823 12.64 20.3443 14 19.4713V20.3823C14 21.5623 11.648 22.8823 8.5 22.8823ZM17.5 19.8823C16.988 19.8823 16.486 19.8473 16 19.7793V17.7953C16.49 17.8523 16.992 17.8823 17.5 17.8823C19.694 17.8823 21.64 17.3443 23 16.4713V17.3823C23 18.5623 20.648 19.8823 17.5 19.8823Z" fill="url(#paint0_linear_333_5494)"/>
<defs>
<linearGradient id="paint0_linear_333_5494" x1="1" y1="12.8823" x2="28.2602" y2="22.5873" gradientUnits="userSpaceOnUse">
<stop stop-color="#2B5EB7"/>
<stop offset="1" stop-color="#0077FF"/>
</linearGradient>
</defs>
</svg>
