<svg width="25" height="25" viewBox="0 0 25 25" fill="none" xmlns="http://www.w3.org/2000/svg">
<path d="M19 12.8823C19 13.1475 18.8947 13.4019 18.7072 13.5894C18.5196 13.777 18.2653 13.8823 18 13.8823C17.7348 13.8823 17.4805 13.777 17.2929 13.5894C17.1054 13.4019 17 13.1475 17 12.8823C17 12.6171 17.1054 12.3628 17.2929 12.1752C17.4805 11.9877 17.7348 11.8823 18 11.8823C18.2653 11.8823 18.5196 11.9877 18.7072 12.1752C18.8947 12.3628 19 12.6171 19 12.8823ZM8.00005 5.88232C8.26526 5.88232 8.51962 5.77697 8.70715 5.58943C8.89469 5.40189 9.00005 5.14754 9.00005 4.88232C9.00005 3.77932 9.89705 2.88232 11 2.88232C12.103 2.88232 13 3.77932 13 4.88232C13 5.14754 13.1054 5.40189 13.2929 5.58943C13.4805 5.77697 13.7348 5.88232 14 5.88232C14.2653 5.88232 14.5196 5.77697 14.7072 5.58943C14.8947 5.40189 15 5.14754 15 4.88232C15 2.67632 13.206 0.882324 11 0.882324C8.79405 0.882324 7.00005 2.67632 7.00005 4.88232C7.00005 5.14754 7.1054 5.40189 7.29294 5.58943C7.48048 5.77697 7.73483 5.88232 8.00005 5.88232ZM25.0001 13.8823V15.8823C25.0001 16.9883 24.2521 17.6613 23.432 17.8363C22.7625 19.5011 21.5541 20.8933 20 21.7903V21.8823C20 23.5363 18.654 24.8823 17 24.8823C16.3798 24.8816 15.7749 24.6889 15.2684 24.3309C14.7619 23.9728 14.3786 23.4668 14.171 22.8823H11.828C11.6205 23.4668 11.2371 23.9728 10.7307 24.3309C10.2242 24.6889 9.61932 24.8816 8.99905 24.8823C7.34505 24.8823 5.99905 23.5363 5.99905 21.8823V21.8033C4.70334 21.0597 3.64281 19.9668 2.93853 18.6493C2.23424 17.3318 1.91459 15.8428 2.01605 14.3523C2.07905 13.3743 2.32605 12.4453 2.72105 11.5963C2.20625 11.3536 1.771 10.9697 1.46596 10.4892C1.16092 10.0087 0.998649 9.45146 0.998047 8.88232C0.998047 7.22832 2.34405 5.88232 3.99805 5.88232C4.26326 5.88232 4.51762 5.98768 4.70515 6.17522C4.89269 6.36275 4.99805 6.61711 4.99805 6.88232C4.99805 7.14754 4.89269 7.40189 4.70515 7.58943C4.51762 7.77697 4.26326 7.88232 3.99805 7.88232C3.74841 7.88262 3.50792 7.97626 3.32382 8.14486C3.13973 8.31346 3.02535 8.54482 3.00317 8.79346C2.98099 9.04211 3.0526 9.29006 3.20394 9.48858C3.35529 9.68711 3.57541 9.82185 3.82105 9.86632C4.61107 8.92761 5.59757 8.17382 6.71088 7.6582C7.82419 7.14258 9.03714 6.87772 10.264 6.88232H15.627C16.36 5.40432 17.729 4.37032 19.5541 3.93632C19.8443 3.86732 20.1464 3.86513 20.4376 3.92991C20.7288 3.9947 21.0015 4.12478 21.2351 4.31032C21.4736 4.49785 21.6664 4.7372 21.7987 5.01025C21.9311 5.2833 21.9996 5.58288 21.9991 5.88632V9.60132C22.6054 10.2898 23.0897 11.0768 23.431 11.9283C24.2521 12.1033 25.0001 12.7763 25.0001 13.8823ZM23 13.8823H22.706C22.4907 13.8822 22.2811 13.8126 22.1085 13.6837C21.9358 13.5549 21.8094 13.3738 21.748 13.1673C21.4671 12.2358 20.9652 11.3861 20.285 10.6903C20.1025 10.5038 20.0002 10.2533 20 9.99232V5.88632C19.025 6.11832 17.7351 6.71632 17.236 8.22132C17.095 8.64432 16.683 8.93532 16.246 8.90532C16.178 8.90232 10.266 8.88332 10.266 8.88332C6.96305 8.88332 4.21605 11.3423 4.01305 14.4823C3.93144 15.6829 4.2139 16.8801 4.82352 17.9175C5.43314 18.955 6.34156 19.7844 7.43005 20.2973C7.60068 20.3786 7.74479 20.5066 7.84567 20.6664C7.94655 20.8262 8.00008 21.0113 8.00005 21.2003V21.8833C8.00005 22.4353 8.44905 22.8833 9.00005 22.8833C9.55105 22.8833 10 22.4353 10 21.8833C10 21.3313 10.448 20.8833 11 20.8833H15C15.552 20.8833 16 21.3303 16 21.8833C16 22.1485 16.1054 22.4029 16.2929 22.5904C16.4805 22.778 16.7348 22.8833 17 22.8833C17.2653 22.8833 17.5196 22.778 17.7072 22.5904C17.8947 22.4029 18 22.1485 18 21.8833V21.1893C18.0001 21.0006 18.0536 20.8158 18.1543 20.6561C18.255 20.4965 18.3988 20.3687 18.569 20.2873C19.3269 19.9284 20.0013 19.4148 20.5488 18.7797C21.0963 18.1445 21.5048 17.4018 21.748 16.5993C21.8094 16.3929 21.9358 16.2118 22.1085 16.0829C22.2811 15.9541 22.4907 15.8844 22.706 15.8843H23V13.8843V13.8823Z" fill="url(#paint0_linear_333_5498)"/>
<defs>
<linearGradient id="paint0_linear_333_5498" x1="0.998047" y1="12.8823" x2="28.26" y2="22.5887" gradientUnits="userSpaceOnUse">
<stop stop-color="#2B5EB7"/>
<stop offset="1" stop-color="#0077FF"/>
</linearGradient>
</defs>
</svg>
