<svg width="24" height="25" viewBox="0 0 24 25" fill="none" xmlns="http://www.w3.org/2000/svg">
<g clip-path="url(#clip0_333_6698)">
<path d="M19 1.30664H5C3.67441 1.30823 2.40356 1.83552 1.46622 2.77286C0.528882 3.7102 0.00158786 4.98105 0 6.30664L0 14.3066C0.00158786 15.6322 0.528882 16.9031 1.46622 17.8404C2.40356 18.7778 3.67441 19.3051 5 19.3066H11V21.3066H7C6.73478 21.3066 6.48043 21.412 6.29289 21.5995C6.10536 21.7871 6 22.0414 6 22.3066C6 22.5719 6.10536 22.8262 6.29289 23.0137C6.48043 23.2013 6.73478 23.3066 7 23.3066H17C17.2652 23.3066 17.5196 23.2013 17.7071 23.0137C17.8946 22.8262 18 22.5719 18 22.3066C18 22.0414 17.8946 21.7871 17.7071 21.5995C17.5196 21.412 17.2652 21.3066 17 21.3066H13V19.3066H19C20.3256 19.3051 21.5964 18.7778 22.5338 17.8404C23.4711 16.9031 23.9984 15.6322 24 14.3066V6.30664C23.9984 4.98105 23.4711 3.7102 22.5338 2.77286C21.5964 1.83552 20.3256 1.30823 19 1.30664ZM5 3.30664H19C19.7956 3.30664 20.5587 3.62271 21.1213 4.18532C21.6839 4.74793 22 5.51099 22 6.30664V13.3066H2V6.30664C2 5.51099 2.31607 4.74793 2.87868 4.18532C3.44129 3.62271 4.20435 3.30664 5 3.30664ZM19 17.3066H5C4.38174 17.3041 3.77937 17.1106 3.2753 16.7526C2.77123 16.3945 2.39008 15.8895 2.184 15.3066H21.816C21.6099 15.8895 21.2288 16.3945 20.7247 16.7526C20.2206 17.1106 19.6183 17.3041 19 17.3066Z" fill="url(#paint0_linear_333_6698)"/>
</g>
<defs>
<linearGradient id="paint0_linear_333_6698" x1="1.94735e-07" y1="12.3066" x2="26.6895" y2="22.6722" gradientUnits="userSpaceOnUse">
<stop stop-color="#2B5EB7"/>
<stop offset="1" stop-color="#0077FF"/>
</linearGradient>
<clipPath id="clip0_333_6698">
<rect width="24" height="24" fill="white" transform="translate(0 0.306641)"/>
</clipPath>
</defs>
</svg>
