<svg width="274" height="81" viewBox="0 0 274 81" fill="none" xmlns="http://www.w3.org/2000/svg">
<rect x="85.9374" y="24.9463" width="38.5" height="38.5" rx="4.25" transform="rotate(18.147 85.9374 24.9463)" stroke="black" stroke-width="1.5"/>
<path d="M89.3503 41.8182L90.0392 39.7163C90.5076 38.2872 91.2004 37.2708 92.1177 36.6671C93.0442 36.0664 94.1385 35.9729 95.4006 36.3865C96.6905 36.8093 97.5264 37.5355 97.9083 38.565C98.2903 39.5945 98.247 40.8239 97.7786 42.253L97.0897 44.3549C96.6213 45.784 95.927 46.805 95.0067 47.418C94.0864 48.031 92.9859 48.1276 91.7053 47.7079C90.4154 47.2851 89.581 46.5543 89.2021 45.5155C88.8325 44.4797 88.8819 43.2473 89.3503 41.8182ZM90.9789 42.352C90.6626 43.3171 90.5725 44.1405 90.7088 44.8224C90.8543 45.5072 91.3446 45.9865 92.1798 46.2602C93.015 46.534 93.6893 46.4364 94.2026 45.9675C94.7253 45.5016 95.1448 44.7862 95.4611 43.8211L96.1454 41.7331C96.4648 40.7587 96.5487 39.9384 96.3971 39.2721C96.2486 38.5965 95.7614 38.1234 94.9354 37.8527C94.1095 37.582 93.4368 37.6749 92.9172 38.1315C92.3976 38.5881 91.9796 39.2989 91.6633 40.264L90.9789 42.352ZM108.411 41.5603L89.0972 57.8287L88.118 56.5366L107.409 40.2914L108.411 41.5603ZM98.8559 55.6627L99.5448 53.5608C100.013 52.1317 100.706 51.1153 101.623 50.5116C102.55 49.9109 103.644 49.8174 104.906 50.231C106.196 50.6538 107.032 51.38 107.414 52.4095C107.796 53.439 107.753 54.6684 107.284 56.0975L106.595 58.1994C106.127 59.6285 105.433 60.6495 104.512 61.2625C103.592 61.8755 102.492 61.9721 101.211 61.5524C99.921 61.1296 99.0866 60.3988 98.7077 59.36C98.3381 58.3242 98.3875 57.0918 98.8559 55.6627ZM100.484 56.1965C100.168 57.1616 100.078 57.985 100.214 58.6669C100.36 59.3517 100.85 59.831 101.685 60.1047C102.521 60.3785 103.195 60.2809 103.708 59.812C104.231 59.3461 104.65 58.6307 104.967 57.6656L105.651 55.5776C105.97 54.6032 106.054 53.7829 105.903 53.1166C105.754 52.441 105.267 51.9679 104.441 51.6972C103.615 51.4265 102.942 51.5194 102.423 51.976C101.903 52.4326 101.485 53.1434 101.169 54.1085L100.484 56.1965Z" fill="black"/>
<rect x="223.94" y="42.4891" width="38.5" height="38.5" rx="4.25" transform="rotate(-17.4555 223.94 42.4891)" stroke="black" stroke-width="1.5"/>
<path d="M244.953 58.1771L244.443 56.5561L251.891 54.2141L252.401 55.8351L244.953 58.1771Z" fill="black"/>
<rect x="171.919" y="1.00326" width="38.5" height="38.5" rx="4.25" transform="rotate(26.0634 171.919 1.00326)" stroke="black" stroke-width="1.5"/>
<path d="M174.242 25.1963L174.97 23.7093L186.707 29.4502L185.98 30.9372L174.242 25.1963ZM176.605 33.2008L182.745 20.6473L184.351 21.4325L178.211 33.986L176.605 33.2008Z" fill="black"/>
<rect x="1.01777" y="20.4767" width="38.5" height="38.5" rx="4.25" transform="rotate(-28.6496 1.01777 20.4767)" stroke="black" stroke-width="1.5"/>
<path d="M20.322 28.3446L20.7504 26.7457L33.3716 30.1275L32.9432 31.7264L20.322 28.3446ZM24.1772 35.7469L27.7941 22.2485L29.5203 22.711L25.9034 36.2095L24.1772 35.7469Z" fill="black"/>
</svg>
